<svg xmlns="http://www.w3.org/2000/svg" width="26" height="16"><rect width="26" height="16" rx="2" ry="2" fill="#000268"/><path data-name="92186184" d="M2.68 4.91v6.18a1.11 1.11 0 001.11 1.1h10.12V3.81H3.79a1.11 1.11 0 00-1.11 1.1zM16.52 8c0 .39-.2.66-.52.66a.58.58 0 01-.52-.66c0-.37.21-.64.52-.64a.55.55 0 01.52.64zm-1.89 2.26h.85V8.88a.84.84 0 00.78.41c.74 0 1.14-.61 1.14-1.29a1.15 1.15 0 00-1.06-1.3 1 1 0 00-.92.51v-.45h-.78zm3.94-1.78c0-.24.22-.33.51-.33h.36a.56.56 0 01-.52.58c-.2-.01-.35-.11-.35-.28zm1.72.78a2.84 2.84 0 01-.05-.58v-.95c0-.76-.55-1-1.18-1a2.59 2.59 0 00-1 .18v.58a1.54 1.54 0 01.79-.19c.31 0 .56.09.56.43a2.41 2.41 0 00-.4 0c-.45 0-1.27.09-1.27.84 0 .54.44.78.92.78a.87.87 0 00.79-.45v.39zm.38 1a3.17 3.17 0 00.53 0c.78 0 1-.6 1.21-1.22l.91-2.3h-.86L22 8.37l-.54-1.61h-.96l1 2.53a.45.45 0 01-.44.34 1.26 1.26 0 01-.33-.05z" fill="#fff"/><path data-name="47303032" d="M4.77 8c0-.33.16-.61.48-.61a.54.54 0 01.55.58.59.59 0 01-.55.64C5 8.58 4.77 8.36 4.77 8zm1.85-1.24h-.77v.45A1 1 0 005 6.7c-.77 0-1.11.55-1.11 1.29A1.11 1.11 0 005 9.23a1 1 0 00.83-.42v.13c0 .48-.27.72-.76.72a1.68 1.68 0 01-.84-.21v.68a3 3 0 00.94.15c1 0 1.49-.32 1.49-1.34V6.76zm1.44-1h-.85v.63h.85v-.66zm-.85 3.5h.85v-2.5h-.85v2.47zm3.23-2.5a2.58 2.58 0 00-.29 0 .76.76 0 00-.73.52v-.52h-.79v2.47h.86v-1c0-.49.22-.78.62-.78a1 1 0 01.29 0zm1.47 2c-.39 0-.56-.33-.56-.69s.17-.7.56-.7.55.33.55.7-.16.62-.55.62zm0 .6a1.3 1.3 0 100-2.59 1.3 1.3 0 100 2.59z" fill="#ff0007"/></svg>