<svg xmlns="http://www.w3.org/2000/svg" width="26" height="16"><rect width="26" height="16" rx="2" ry="2" fill="#c52b71"/><path fill="#fff" d="M8.18 8.68h1.99v3.3H8.18zM10.31 7a1.13 1.13 0 11-1.12-1.1A1.13 1.13 0 0110.31 7z"/><path d="M13.93 2.59H6.8v10.82h7.13a5.61 5.61 0 003.67-1.16A5.3 5.3 0 0019.2 8a6.56 6.56 0 00-.42-2.44 4.3 4.3 0 00-1.18-1.7 5.54 5.54 0 00-3.67-1.27zm-.14.72a4.93 4.93 0 013.34 1.08A4.61 4.61 0 0118.49 8c0 3.16-1.54 4.69-4.7 4.69H7.51V3.31z" fill="#fff"/><path d="M11.52 7.69a.27.27 0 00.13-.07.35.35 0 00.09-.15 1.42 1.42 0 000-.33 1.27 1.27 0 000-.32.49.49 0 00-.1-.16.36.36 0 00-.15-.08h-.41v1.13h.22zm3.53-.41h.37l-.19-.5z" fill="#fff"/><path d="M16.45 8.13v-2h.48v1.58h.9c-.19-2.77-2.32-3.53-4.33-3.53h-2.42v2h.25a1.81 1.81 0 01.38 0 .73.73 0 01.3.19.94.94 0 01.19.32 1.53 1.53 0 01.07.46 1.33 1.33 0 01-.06.42 1 1 0 01-.22.35.64.64 0 01-.28.16 1.15 1.15 0 01-.36.05h-.27V12h2.42c2.09 0 4.32-.63 4.34-3.86zm-2.33 0h-1.53v-2h1.49v.42h-1v.31H14v.44h-.94v.41h1zm1.62 0l-.16-.43h-.68l-.16.43h-.51l.77-2h.47l.79 2z" fill="#fff"/></svg>