<svg id="Klarna" xmlns="http://www.w3.org/2000/svg" width="26" height="16"><style>.st1{fill:#fff}</style><path d="M2 0h22c1.1 0 2 .9 2 2v12c0 1.1-.9 2-2 2H2c-1.1 0-2-.9-2-2V2C0 .9.9 0 2 0z" fill="#eb6f93"/><path id="Shape_3_" class="st1" d="M16.6 3h-2.3c0 1.8-.9 3.5-2.3 4.6l-.9.7 3.5 4.7h2.8l-3.2-4.3c1.6-1.5 2.4-3.5 2.4-5.7z"/><path id="Rectangle-path_3_" class="st1" d="M8.5 3h2.3v10H8.5z"/><path class="st1" d="M18.9 10.4c-.7 0-1.3.6-1.3 1.3s.6 1.3 1.3 1.3c.7 0 1.3-.6 1.3-1.3 0-.7-.6-1.3-1.3-1.3z"/></svg>