<svg version="1.1" id="Visa" xmlns="http://www.w3.org/2000/svg" x="0" y="0" width="36" height="22"><style/><path id="Rounded_Rectangle_53_3_" d="M3 0h30c1.7 0 3 1.3 3 3v16c0 1.7-1.3 3-3 3H3c-1.7 0-3-1.3-3-3V3c0-1.7 1.3-3 3-3z" fill="#313159"/><circle cx="14" cy="11" r="6" fill="#d92e28"/><circle id="Ellipse_8_copy_3_" cx="22" cy="11" r="6" fill="#4299da"/><path id="Rounded_Rectangle_25_3_" d="M18 6c-2.8 1.5-3.8 4.9-2.3 7.6.4.8 1 1.4 1.7 1.9.2.2.5.3.7.4h.1c2.7-1.4 3.7-4.9 2.3-7.6C19.8 7.4 19 6.5 18 6" fill="#6c6db9"/></svg>