<svg xmlns="http://www.w3.org/2000/svg" width="26" height="16"><rect x=".03" width="25.97" height="16" rx="2" ry="2" fill="#405787"/><path d="M13.35 10.75a2.11 2.11 0 00.7-.47 3.36 3.36 0 001.17-2.58 2.76 2.76 0 00-1.52-2.4 1.5 1.5 0 01.63.37 2.61 2.61 0 011 2.06A3.51 3.51 0 0114 10.46a1.85 1.85 0 00.53-.48 3.5 3.5 0 00.85-2.23 2.88 2.88 0 00-1.63-2.6 2.2 2.2 0 01.76.44 2.76 2.76 0 01.94 2.29 3.63 3.63 0 01-1.14 2.45 4.1 4.1 0 01-2.47 1.11h-.36A2.8 2.8 0 018.7 8.83a3.69 3.69 0 010-.47 3.57 3.57 0 011.06-2.28 3.6 3.6 0 012.46-1.19c0-.12.06-.25.07-.34.36.38.79.79 1.23 1.23l-1.58.85v-.3a2.15 2.15 0 00-1.81 1.73 1.6 1.6 0 001.62 2A2.22 2.22 0 0014 8.25a1.68 1.68 0 00-.64-1.68 1.61 1.61 0 01.79 1.49 2.37 2.37 0 01-2.27 2.08 2 2 0 01-1.54-.72 1.88 1.88 0 001.73.76 2.31 2.31 0 001.41-.66 2.38 2.38 0 00.71-1.33 2 2 0 000-.6 2.26 2.26 0 00-.77-1.24A2 2 0 0114.3 8a2.55 2.55 0 01-2.3 2.28 2 2 0 01-1.64-.58 2 2 0 001.86.61 2.57 2.57 0 002.15-2.18 2.18 2.18 0 00-.89-2 2 2 0 011 1.63 2.52 2.52 0 01-.75 1.82 2.64 2.64 0 01-3.11.51 2.53 2.53 0 003-.38 2.48 2.48 0 00.86-2.11 2.15 2.15 0 00-1-1.6 2 2 0 011.09 1.56 2.6 2.6 0 01-.92 2.22 2.9 2.9 0 01-2.7.68 2.9 2.9 0 003.67-2.26A2.28 2.28 0 0013.7 6a1.77 1.77 0 01-.16-.14 2.21 2.21 0 011.14 2.5 3 3 0 01-3.59 2.3 1.93 1.93 0 00.86.07 3 3 0 002-.92 2.9 2.9 0 00.82-2.26 2.42 2.42 0 00-1.2-1.82 1.76 1.76 0 01.67.48 2.21 2.21 0 01.61 1.38A3 3 0 0114 9.93a3.05 3.05 0 01-2.27 1 3.14 3.14 0 003-1.9 2.89 2.89 0 00.13-2.07 2.87 2.87 0 00-1.16-1.34A2.44 2.44 0 0115 8.11a3 3 0 01-.42 1.25 3.78 3.78 0 01-2 1.57 3.1 3.1 0 001.61-1 3.21 3.21 0 00.9-2.32A2.77 2.77 0 0013.7 5.4a2.48 2.48 0 011.44 2 3.47 3.47 0 01-1.8 3.31" fill="#fff"/><path d="M5.71 8.28h.08c.53 0 .68-.11.76-.21a1.66 1.66 0 00.13-.84.88.88 0 00-.19-.7 1.18 1.18 0 00-.79-.18v1.93zM4 11.19V5.25h1.52a10.78 10.78 0 011.37 0 2.67 2.67 0 01.81.3 1.44 1.44 0 01.56.67 2.64 2.64 0 01.19 1.06A2.08 2.08 0 018 8.87a2.91 2.91 0 01-1.84.5h-.44v1.82zm15.85 0h-3.9V5.21h1.92v4.17h2zm2.17 0h-1.86V7.26H22zm0-4.32h-1.88V5.24H22z" fill="#131413"/></svg>