<svg data-name="Diners Club" xmlns="http://www.w3.org/2000/svg" width="36" height="22"><rect data-name="Rounded Rectangle 54" width="36" height="22" rx="3" ry="3" fill="#2183cb"/><path d="M19.058 18H16.63A6.86 6.86 0 0110 11.062a6.725 6.725 0 016.338-7.056h2.724a6.965 6.965 0 016.93 7v.061A7.032 7.032 0 0119.058 18zM16.807 5.226A5.781 5.781 0 1022.434 11a5.741 5.741 0 00-5.627-5.778zm.889 9.671V7.173a3.98 3.98 0 012.843 4.805 3.909 3.909 0 01-2.843 2.919zm-1.777 0a4.009 4.009 0 01-2.784-4.866 3.948 3.948 0 012.784-2.858v7.724z" fill="#fff" fill-rule="evenodd"/></svg>