<svg xmlns="http://www.w3.org/2000/svg" width="36" height="22"><path data-name="Rounded Rectangle 52" d="M3 0h30a3 3 0 013 3v16a3 3 0 01-3 3H3a3 3 0 01-3-3V3a3 3 0 013-3z" fill="#f1f0f2"/><g fill="#71706f"><path d="M27.63 11.37h-2.06a.48.48 0 010-.95h3.32V8.84h-3.42a2.05 2.05 0 00-2 2.05 2.05 2.05 0 002 2.06h2.21a.47.47 0 110 .94H23a4 4 0 01-1.47 1.69h6.06a2.11 2.11 0 002.1-2.11 2.1 2.1 0 00-2.06-2.1z"/><path d="M22.68 12.21a3.37 3.37 0 00-3.37-3.37 3.29 3.29 0 00-3.26 3.37v6.94h1.58v-3.57h1.68a3.37 3.37 0 003.37-3.37zm-1.58-.05a1.72 1.72 0 01-1.73 1.73h-1.74v-1.73a1.74 1.74 0 113.47 0z"/></g><g fill="#c8026e"><path d="M9.22 5.79a1.47 1.47 0 012.94 0v.84h1.37v-.94a2.84 2.84 0 00-5.68 0v.94h1.37zm5.99 8.1V9.13a1.43 1.43 0 00-1.44-1.44H7.71a1.44 1.44 0 00-1.44 1.44v6.06a1.45 1.45 0 001.44 1.44h6.06a1.45 1.45 0 001.39-1h-4.47a3.37 3.37 0 01-3.37-3.37 3.37 3.37 0 013.37-3.37 3.37 3.37 0 013.37 3.37V13H9.2a1.72 1.72 0 001.54.94h4.47z"/><path d="M10.74 10.42a1.73 1.73 0 00-1.54.95h3.09a1.74 1.74 0 00-1.55-.95z"/></g></svg>