<svg width="36" height="22" viewBox="0 0 65 40" fill="none" xmlns="http://www.w3.org/2000/svg"><g clip-path="url(#clip0)"><path d="M59.333 0H6C3.054 0 .667 2.442.667 5.455v29.09C.667 37.558 3.054 40 6 40h53.333c2.946 0 5.334-2.442 5.334-5.455V5.455C64.666 2.442 62.279 0 59.332 0z" fill="#C06"/><g clip-path="url(#clip1)"><path d="M15.666 7.224v25.552A2.23 2.23 0 0017.89 35h15.267c11.542 0 16.546-6.46 16.546-15.033C49.703 11.438 44.699 5 33.157 5H17.89a2.23 2.23 0 00-2.224 2.224z" fill="#fff"/><path d="M25.886 11.27v18.882h8.217c7.462 0 10.697-4.215 10.697-10.175 0-5.704-3.235-10.13-10.697-10.13H27.31c-.789 0-1.423.646-1.423 1.424z" fill="#C06"/><path d="M33.157 32.965H19.881a2.136 2.136 0 01-2.135-2.135V9.18c0-1.178.956-2.134 2.135-2.134h13.276c12.599 0 14.478 8.106 14.478 12.932 0 8.373-5.148 12.987-14.477 12.987zM19.881 7.758c-.79 0-1.423.633-1.423 1.423v21.65a1.42 1.42 0 001.423 1.423h13.276c8.874 0 13.766-4.36 13.766-12.276 0-10.63-8.628-12.22-13.766-12.22H19.881z" fill="#000"/><path d="M28.777 17.433c.29 0 .556.044.812.133.256.09.467.234.656.412.178.189.322.422.434.69.1.277.155.6.155.978 0 .333-.044.633-.122.912a2.128 2.128 0 01-.378.722c-.167.2-.378.356-.634.478a2.242 2.242 0 01-.9.178h-1.947v-4.514h1.924v.011zm-.067 3.68c.145 0 .278-.022.423-.066a.83.83 0 00.356-.234c.1-.11.189-.244.255-.422.067-.178.1-.378.1-.634a2.61 2.61 0 00-.066-.612 1.216 1.216 0 00-.223-.467 1.003 1.003 0 00-.4-.3 1.637 1.637 0 00-.611-.1h-.712v2.847h.878v-.012zm6.136-3.68v.834h-2.38v.967h2.191v.768h-2.19v1.1h2.435v.834h-3.425v-4.514h3.37v.011zm3.404-.001l1.69 4.514h-1.034l-.345-1h-1.69l-.356 1h-1l1.7-4.514h1.035zm.056 2.768l-.567-1.656h-.012l-.589 1.656h1.168zm3.248-2.768v3.68h2.201v.834h-3.191v-4.514h.99z" fill="#fff"/><path d="M22.172 21.767a2.08 2.08 0 100-4.159 2.08 2.08 0 000 4.159zm1.566 8.383a3.144 3.144 0 01-3.147-3.146v-2.457a1.578 1.578 0 113.158 0v5.604h-.01z" fill="#000"/></g></g><defs><clipPath id="clip0"><path fill="#fff" transform="translate(.667)" d="M0 0h64v40H0z"/></clipPath><clipPath id="clip1"><path fill="#fff" transform="translate(15.666 5)" d="M0 0h34.036v30H0z"/></clipPath></defs></svg>