<svg xmlns="http://www.w3.org/2000/svg" viewBox="0 0 26 16" width="36" height="22"><rect width="26" height="16" rx="2" ry="2" fill="#2464b4"/><path d="M16.64 7.19c0 .19 0 .39-.06.59a2.47 2.47 0 01-2.72 2.16h-.21a.34.34 0 00-.33.29L13 12.08a.33.33 0 01-.33.28h-1a.23.23 0 01-.23-.23L12 8.87h.78a3.18 3.18 0 003.46-2.77 1.49 1.49 0 01.4 1.09zm-5.18 1.54a.42.42 0 01.42-.43h.91A2.63 2.63 0 0015.71 6c.29-1.5-.77-2.34-2.2-2.34h-2.67a.39.39 0 00-.38.33c-.83 5.39-1.08 6.76-1.1 7.18a.22.22 0 00.22.24h1.47z" fill="#fff"/></svg>