<svg xmlns="http://www.w3.org/2000/svg" viewBox="0 0 26 16" width="36" height="22"><rect width="26" height="16" rx="2" ry="2" fill="#072694"/><path d="M8 7.11H6.8a.77.77 0 00-.07-.4c-.07-.11-.27-.16-.6-.16a1.41 1.41 0 00-.64.09.38.38 0 00-.15.36.4.4 0 00.13.36.6.6 0 00.27.07h.24c.53 0 .86 0 1 .07a1.48 1.48 0 01.91.34.83.83 0 01.27.55 2.33 2.33 0 010 .46 2.34 2.34 0 01-.11.87 1.09 1.09 0 01-.92.63 4.64 4.64 0 01-.91.06 5.8 5.8 0 01-1.44-.12.93.93 0 01-.65-.61 3.11 3.11 0 01-.09-.86h1.23V9a.42.42 0 00.19.41.63.63 0 00.3.07h.45a1.29 1.29 0 00.44 0 .31.31 0 00.22-.21A.5.5 0 006.9 9a.35.35 0 00-.23-.39 7.58 7.58 0 00-.82-.08c-.39 0-.67-.05-.82-.08a1.12 1.12 0 01-.8-.46A1.81 1.81 0 014.05 7a2.64 2.64 0 01.1-.74.77.77 0 01.31-.42 1.49 1.49 0 01.79-.26 8.09 8.09 0 01.89 0 5.06 5.06 0 011.1.09A1.1 1.1 0 018 6.87v.24zm5.38 3.34v-4.9h2.46a2.49 2.49 0 01.77.08 1.19 1.19 0 01.81.78 3.2 3.2 0 01.11.93 3.52 3.52 0 01-.12 1.07 1.11 1.11 0 01-1 .74h-1.74v1.26zm1.32-2.4h.82A2 2 0 0016 8a.35.35 0 00.15-.26 2.53 2.53 0 000-.38 1.48 1.48 0 00-.05-.47.39.39 0 00-.34-.25h-1.03v1.41zm5.67 1.55h-1.76l-.24.85H17l1.47-4.9h2l1.53 4.9h-1.38zm-.26-.95l-.62-2.13-.6 2.13z" fill="#fff"/><path d="M10.09 7.13h2.73l-.33.7H9.85a1.09 1.09 0 000 .18 1.18 1.18 0 000 .26h2.43l-.33.7H10.1a1.74 1.74 0 002.42.51 1.56 1.56 0 00.37-.31V10a2.48 2.48 0 01-3.43-.7 2.16 2.16 0 01-.2-.36h-.89l.33-.71h.38a1.69 1.69 0 010-.23v-.21h-.74l.33-.7h.55A2.38 2.38 0 0110.13 6a2.49 2.49 0 013.08.25l-.28.61a1.75 1.75 0 00-2.43-.26 1.67 1.67 0 00-.42.5z" fill="#ffbc00"/></svg>