<svg xmlns="http://www.w3.org/2000/svg" width="36" height="22"><rect data-name="Rounded Rectangle 52" width="36" height="22" rx="3" ry="3" fill="#224dba"/><path d="M11 14.954H8.922L7.364 8.735a1 1 0 00-.462-.658 6.546 6.546 0 00-1.9-.658v-.24H8.35a.886.886 0 01.866.778l.808 4.485 2.077-5.263h2.021zm4.272 0h-1.963l1.616-7.775h1.963zm4.155-5.621a.768.768 0 01.808-.658 3.512 3.512 0 011.9.359l.347-1.674a4.769 4.769 0 00-1.79-.36c-1.9 0-3.29 1.077-3.29 2.571a2.522 2.522 0 001.674 2.094c.75.359 1.039.6.981.957a.978.978 0 01-1.154.777 4.759 4.759 0 01-2.02-.479l-.347 1.675a5.436 5.436 0 002.136.419c2.136.059 3.463-1.017 3.463-2.632 0-2.033-2.713-2.152-2.713-3.049zm9.582 5.621L27.45 7.179h-1.67a.873.873 0 00-.809.6l-2.886 7.177h2.021l.4-1.136h2.482l.231 1.136h1.79zm-2.944-5.681l.577 2.93h-1.616z" fill="#fff" fill-rule="evenodd"/></svg>