<svg xmlns="http://www.w3.org/2000/svg" width="26" height="16"><rect width="26" height="16" rx="2" ry="2" fill="#007ecd"/><path d="M16.6 8.86h1.94v.46h-1.35v.4h1.31v.41h-1.31v.42h1.35V11H16.6zm5.67.84c.73 0 .79.36.79.7a.67.67 0 01-.72.62h-1.28v-.46h1c.17 0 .41 0 .41-.21s0-.16-.22-.18h-.4c-.66 0-.81-.31-.81-.66a.64.64 0 01.64-.63H23v.47h-1c-.21 0-.43 0-.43.18s.11.16.25.17h.41zm-2.22 0c.72 0 .79.36.79.7a.68.68 0 01-.73.62h-1.27v-.46h1c.17 0 .41 0 .41-.21s0-.16-.21-.18h-.41c-.66 0-.81-.31-.81-.66a.64.64 0 01.64-.63h1.31v.47h-.91c-.21 0-.43 0-.43.18s.11.16.25.17h.41zm-7-.84H11l-.67.67-.66-.67H7.29V11h2.25l.71-.71.75.71h1.13v-.73h.8a.72.72 0 00.85-.54.86.86 0 000-.23.64.64 0 00-.61-.66zm-3.8 1.69H7.87v-.42h1.3v-.41h-1.3v-.4h1.44l.57.58zm2.27.25l-.85-.89.85-.84zm1.33-1h-.74v-.48h.74a.27.27 0 01.32.2.27.27 0 01-.2.32zm3.06.19a.57.57 0 00.41-.59.63.63 0 00-.65-.59h-1.6V11h.59v-.76h.78a.33.33 0 01.29.35v.39h.57v-.44A.44.44 0 0016 10zm-.51-.22h-.74v-.45h.74a.27.27 0 01.32.21s-.09.24-.33.24zm-.27-1.67V6h-.6v2.14zM9.62 6h2v.46h-1.4v.4h1.32v.41h-1.32v.42h1.36v.46h-2zm4.17 1.17a.58.58 0 00.41-.6.62.62 0 00-.65-.57h-1.62v2.14h.6v-.76h.78a.32.32 0 01.3.34v.42h.58V7.7a.43.43 0 00-.3-.53zm-.51-.23h-.75v-.49h.75a.27.27 0 01.32.21s-.09.25-.34.25zM8.25 6l-.74 1.43L6.78 6h-.94v2.06L4.8 6H4L2.94 8.14h.63l.24-.48H5l.23.48h1.21V6.55l.8 1.59h.54l.82-1.57v1.57h.59V6h-.94zM4 7.19l.36-.75.37.75H4zM21.28 6v1.47l-1-1.47h-.89v2l-1-2h-.79l-.82 1.66h-.39a.44.44 0 01-.39-.51V7c0-.5.31-.54.71-.54h.37V6h-.78a1.08 1.08 0 00-.88 1.26 1.1 1.1 0 00.94.89h.79l.23-.48h1.2l.23.48H20V6.57l1.08 1.57h.81V6zm-3.67 1.2l.39-.76.37.75z" fill="#fff"/></svg>