<svg class="icon-action-card-secure" xmlns="http://www.w3.org/2000/svg" width="16" height="16"><g fill="#acb2bf"><path d="M5.5 9h-3a.5.5 0 01-.5-.5V5h10.5a.5.5 0 00.5-.5v-2A1.5 1.5 0 0011.5 1h-9A1.5 1.5 0 001 2.5v6A1.5 1.5 0 002.5 10h3a.5.5 0 000-1zM2 2.5a.5.5 0 01.5-.5h9a.5.5 0 01.5.5V3H2z"/><path d="M14.5 6h-7a.5.5 0 00-.5.5v5a3.5 3.5 0 002.12 3.22l1.68.72a.52.52 0 00.4 0l1.68-.72a3.5 3.5 0 002.12-3.2v-5a.5.5 0 00-.5-.52zm-.5 5.52a2.49 2.49 0 01-1.52 2.3l-1.48.64-1.48-.64A2.49 2.49 0 018 11.52V7h6z"/><path d="M10.15 11.85a.48.48 0 00.7 0l2-2a.49.49 0 00-.7-.7l-1.65 1.64-.65-.64a.49.49 0 00-.7.7z"/></g></svg>