<svg class="icon-action-calendar" xmlns="http://www.w3.org/2000/svg" width="16" height="16"><g fill="#C9501C"><path d="M12.5 2H12v-.5a.5.5 0 00-1 0v1a.5.5 0 00.5.5h1A1.5 1.5 0 0114 4.5V5H2v-.5A1.5 1.5 0 013.5 3a.5.5 0 000-1A2.5 2.5 0 001 4.5v8A2.5 2.5 0 003.5 15h9a2.5 2.5 0 002.5-2.5v-8A2.5 2.5 0 0012.5 2zm0 12h-9A1.5 1.5 0 012 12.5V6h12v6.5a1.5 1.5 0 01-1.5 1.5z"/><path d="M5.5 3h4a.5.5 0 000-1H6v-.5a.5.5 0 00-1 0v1a.5.5 0 00.5.5zm0 5h-1a.5.5 0 000 1h1a.5.5 0 000-1zm3 0h-1a.5.5 0 000 1h1a.5.5 0 000-1zm3 0h-1a.5.5 0 000 1h1a.5.5 0 000-1zm-6 3h-1a.5.5 0 000 1h1a.5.5 0 000-1zm3 0h-1a.5.5 0 000 1h1a.5.5 0 000-1zm3 0h-1a.5.5 0 000 1h1a.5.5 0 000-1z"/></g></svg>